<?xml version="1.0" standalone="no"?>
<!DOCTYPE svg PUBLIC "-//W3C//DTD SVG 20010904//EN"
 "http://www.w3.org/TR/2001/REC-SVG-20010904/DTD/svg10.dtd">
<svg version="1.0" xmlns="http://www.w3.org/2000/svg"
 width="256.000000pt" height="256.000000pt" viewBox="0 0 256.000000 256.000000"
 preserveAspectRatio="xMidYMid meet">
<metadata>
Created by potrace 1.14, written by Peter Selinger 2001-2017
</metadata>
<g transform="translate(0.000000,256.000000) scale(0.100000,-0.100000)"
fill="#000000" stroke="none">
<path d="M1652 2305 c-142 -34 -282 -145 -347 -278 -43 -88 -58 -167 -53 -274
2 -45 2 -80 -1 -79 -3 2 -40 7 -81 11 -330 30 -697 214 -919 459 -81 90 -72
87 -98 27 -32 -73 -42 -124 -43 -211 0 -148 51 -270 159 -376 l64 -64 -34 6
c-65 10 -124 27 -161 46 l-37 18 5 -42 c10 -89 16 -115 42 -173 59 -135 166
-236 304 -286 77 -29 59 -37 -69 -35 -88 1 -92 0 -87 -19 25 -82 120 -201 204
-255 56 -36 167 -77 220 -81 56 -4 55 -9 -7 -51 -177 -119 -362 -175 -575
-174 -94 1 -124 -2 -117 -11 14 -16 206 -109 275 -134 64 -22 181 -54 229 -63
139 -27 396 -28 545 -2 14 2 43 7 65 11 22 4 69 16 105 27 292 89 499 224 696
454 48 56 154 206 154 219 0 3 10 22 23 43 29 47 88 187 115 272 44 140 62
252 68 409 2 58 7 107 11 111 107 85 135 114 239 243 17 21 21 22 -62 -8 -84
-30 -204 -56 -204 -44 0 5 15 19 33 30 17 12 51 44 74 72 43 51 100 153 91
162 -3 3 -38 -10 -79 -29 -87 -40 -155 -63 -207 -72 -29 -5 -42 -1 -62 16 -48
43 -128 89 -191 111 -76 26 -208 33 -287 14z"/>
</g>
</svg>
